<svg width="110" height="110" viewBox="0 0 110 110" fill="none" xmlns="http://www.w3.org/2000/svg">
<path d="M87 35.1556C84.645 36.1997 82.1145 36.9053 79.4585 37.2227C82.1698 35.598 84.2515 33.0254 85.2318 29.96C82.6544 31.4892 79.8345 32.5665 76.894 33.1456C74.4988 30.5944 71.0865 29 67.3097 29C60.0583 29 54.179 34.8777 54.179 42.1271C54.179 43.1561 54.2952 44.1579 54.519 45.1189C43.6065 44.5713 33.9315 39.3452 27.4552 31.403C26.3252 33.3418 25.6778 35.597 25.6778 38.0025C25.6778 42.557 27.996 46.5749 31.519 48.9291C29.4339 48.8638 27.3946 48.3008 25.5715 47.287C25.5707 47.3419 25.5707 47.3969 25.5707 47.4522C25.5707 53.8125 30.0967 59.1183 36.1032 60.3243C34.1697 60.8501 32.1416 60.927 30.1737 60.5493C31.8445 65.7646 36.6938 69.5598 42.4393 69.666C37.9455 73.1867 32.2838 75.2855 26.1323 75.2855C25.0723 75.2855 24.0273 75.2233 23 75.1021C28.8108 78.8267 35.7125 81 43.1275 81C67.2793 81 80.486 60.9967 80.486 43.6495C80.486 43.0801 80.4735 42.514 80.448 41.9511C83.0186 40.0933 85.2373 37.7921 87 35.1556Z" fill="#55ACEE"/>
</svg>
